<svg width="40" height="40" fill="none" xmlns="http://www.w3.org/2000/svg"><rect x="15.769" y="25.853" width="12.16" height="6.755" rx="1.5" stroke="#222325" stroke-width="1.5"/><path d="M25.605 32.608v-2.99a1.3 1.3 0 00-1.3-1.3h-5.072a1.3 1.3 0 00-1.3 1.3v2.99M14.638 14.463c-5.658-.169-5.612 6.916 1.492 11.964M27.579 26.42l1.915-5.39v-9.49a2 2 0 00-2-2h-1.885M25.545 12.338V9.402a1 1 0 00-1-1H21.77M21.76 12.152V8.5a1 1 0 00-1-1H18.93a1 1 0 00-1 1v4.003" stroke="#222325" stroke-width="1.5"/><path d="M17.928 8.402h-1.831a2 2 0 00-2 2v4.06" stroke="#222325" stroke-width="1.5"/><path d="M29.514 13.466c-5.768-2.476-11.836-1.054-13.998-.108-.495.296-1.038 1.577-1.273 2.182-.081.21-.119.432-.119.657v2.443" stroke="#222325" stroke-width="1.5" stroke-linecap="round"/></svg>