<svg width="40" height="40" fill="none" xmlns="http://www.w3.org/2000/svg"><path d="M7.75 13A2.25 2.25 0 0110 10.75h6A2.25 2.25 0 0118.25 13v3A2.25 2.25 0 0116 18.25h-6A2.25 2.25 0 017.75 16v-3zM7.75 24A2.25 2.25 0 0110 21.75h6A2.25 2.25 0 0118.25 24v3A2.25 2.25 0 0116 29.25h-6A2.25 2.25 0 017.75 27v-3zM21.75 13A2.25 2.25 0 0124 10.75h6A2.25 2.25 0 0132.25 13v3A2.25 2.25 0 0130 18.25h-6A2.25 2.25 0 0121.75 16v-3zM21.75 24A2.25 2.25 0 0124 21.75h6A2.25 2.25 0 0132.25 24v3A2.25 2.25 0 0130 29.25h-6A2.25 2.25 0 0121.75 27v-3z" stroke="#222325" stroke-width="1.5"/></svg>