<svg width="20" height="20" viewBox="0 0 20 20" fill="none" xmlns="http://www.w3.org/2000/svg">
    <path
        d="M9.27047 4.42758C9.57445 3.85747 10.4256 3.85748 10.7295 4.42758L11.9835 6.77933C12.1025 7.00253 12.3258 7.15782 12.5844 7.19718L15.3088 7.61188C15.9692 7.71241 16.2322 8.48715 15.7596 8.94002L13.8102 10.8082C13.6252 10.9855 13.5399 11.2368 13.5807 11.4843L14.0105 14.0923C14.1147 14.7246 13.4262 15.2034 12.8301 14.9132L10.3714 13.716C10.138 13.6024 9.86198 13.6024 9.62863 13.716L7.16988 14.9132C6.57384 15.2034 5.88529 14.7246 5.98948 14.0923L6.41927 11.4843C6.46006 11.2368 6.37476 10.9855 6.18975 10.8082L4.24037 8.94002C3.76781 8.48715 4.03081 7.71241 4.69124 7.61188L7.41562 7.19718C7.67418 7.15782 7.8975 7.00253 8.01651 6.77933L9.27047 4.42758Z"
        fill="#72CC0B" />
</svg>