<svg width="24" height="24" viewBox="0 0 24 24" fill="none" xmlns="http://www.w3.org/2000/svg">
  <path d="M12 20.937C11.8092 20.9387 11.6214 20.8893 11.4562 20.794C11.2909 20.6987 11.1541 20.561 11.06 20.395L9.60996 17.9C9.60078 17.8825 9.58572 17.8688 9.56743 17.8613C9.54914 17.8538 9.52879 17.853 9.50996 17.859L6.72796 18.6C6.5442 18.6484 6.35097 18.6478 6.16753 18.5982C5.98409 18.5487 5.81685 18.4519 5.68249 18.3175C5.54812 18.1831 5.45133 18.0159 5.40176 17.8325C5.35218 17.649 5.35156 17.4558 5.39996 17.272L6.14796 14.472C6.15287 14.4532 6.15153 14.4332 6.14414 14.4152C6.13675 14.3972 6.1237 14.382 6.10696 14.372L3.60696 12.933C3.44187 12.8377 3.30477 12.7006 3.20946 12.5355C3.11414 12.3704 3.06396 12.1832 3.06396 11.9925C3.06396 11.8019 3.11414 11.6146 3.20946 11.4495C3.30477 11.2844 3.44187 11.1473 3.60696 11.052L6.09996 9.61003C6.1167 9.60005 6.12975 9.5849 6.13714 9.56687C6.14453 9.54884 6.14587 9.52889 6.14096 9.51003L5.39996 6.72803C5.35156 6.54427 5.35218 6.35104 5.40176 6.1676C5.45133 5.98416 5.54812 5.81692 5.68249 5.68256C5.81685 5.54819 5.98409 5.4514 6.16753 5.40183C6.35097 5.35225 6.5442 5.35163 6.72796 5.40003L9.52796 6.14803C9.54682 6.15294 9.56677 6.1516 9.5848 6.14421C9.60283 6.13682 9.61798 6.12377 9.62796 6.10703L11.067 3.60703C11.161 3.44244 11.2968 3.30552 11.4606 3.21003C11.6244 3.11454 11.8104 3.06384 12 3.06303C12.1907 3.06137 12.3785 3.11074 12.5438 3.20604C12.709 3.30134 12.8458 3.43909 12.94 3.60503L14.39 6.10003C14.3991 6.11754 14.4142 6.13125 14.4325 6.13875C14.4508 6.14625 14.4711 6.14705 14.49 6.14103L17.272 5.40003C17.4557 5.35163 17.6489 5.35225 17.8324 5.40183C18.0158 5.4514 18.1831 5.54819 18.3174 5.68256C18.4518 5.81692 18.5486 5.98416 18.5982 6.1676C18.6477 6.35104 18.6484 6.54427 18.6 6.72803L17.852 9.52803C17.847 9.54689 17.8484 9.56684 17.8558 9.58487C17.8632 9.6029 17.8762 9.61805 17.893 9.62803L20.393 11.067C20.558 11.1623 20.6951 11.2994 20.7905 11.4645C20.8858 11.6296 20.936 11.8169 20.936 12.0075C20.936 12.1982 20.8858 12.3854 20.7905 12.5505C20.6951 12.7156 20.558 12.8527 20.393 12.948L17.9 14.39C17.8832 14.4 17.8702 14.4152 17.8628 14.4332C17.8554 14.4512 17.854 14.4712 17.859 14.49L18.607 17.274C18.6555 17.4584 18.6547 17.6522 18.6046 17.8362C18.5546 18.0201 18.457 18.1876 18.3218 18.322C18.1865 18.4563 18.0184 18.5527 17.8341 18.6015C17.6498 18.6503 17.456 18.6498 17.272 18.6L14.472 17.852C14.4531 17.8471 14.4332 17.8485 14.4151 17.8558C14.3971 17.8632 14.3819 17.8763 14.372 17.893L12.933 20.393C12.8383 20.5586 12.7014 20.6962 12.5363 20.7918C12.3712 20.8873 12.1837 20.9375 11.993 20.937H12ZM9.53396 16.853C9.72457 16.853 9.91186 16.9029 10.0772 16.9978C10.2424 17.0927 10.38 17.2294 10.476 17.394L11.924 19.894C11.931 19.9076 11.9419 19.9189 11.9552 19.9265C11.9684 19.9342 11.9837 19.9378 11.999 19.937C12.0141 19.9376 12.0291 19.9339 12.0422 19.9263C12.0553 19.9186 12.066 19.9075 12.073 19.894L13.513 17.394C13.6316 17.1862 13.8158 17.0236 14.0368 16.9319C14.2578 16.8401 14.503 16.8243 14.734 16.887L17.534 17.634C17.5486 17.6378 17.564 17.6377 17.5786 17.6337C17.5932 17.6297 17.6065 17.622 17.6172 17.6113C17.6279 17.6006 17.6357 17.5873 17.6397 17.5727C17.6436 17.5581 17.6437 17.5427 17.64 17.528L16.893 14.743C16.8311 14.5127 16.8466 14.2684 16.9369 14.0477C17.0272 13.827 17.1874 13.642 17.393 13.521L19.893 12.073C19.9063 12.0656 19.9174 12.0547 19.9251 12.0415C19.9328 12.0283 19.9369 12.0133 19.9369 11.998C19.9369 11.9828 19.9328 11.9678 19.9251 11.9546C19.9174 11.9414 19.9063 11.9305 19.893 11.923L17.393 10.484C17.1859 10.3647 17.0239 10.1803 16.9323 9.95957C16.8406 9.73881 16.8243 9.49398 16.886 9.26303L17.633 6.46303C17.6376 6.44853 17.6379 6.43303 17.634 6.41833C17.6301 6.40363 17.6221 6.39034 17.611 6.38003C17.5999 6.36923 17.5863 6.36145 17.5715 6.35742C17.5566 6.3534 17.5409 6.35326 17.526 6.35703L14.742 7.10403C14.5116 7.16585 14.2674 7.15042 14.0466 7.06011C13.8259 6.96979 13.6409 6.80958 13.52 6.60403L12.072 4.10403C12.0648 4.09127 12.0544 4.08071 12.0417 4.07348C12.029 4.06625 12.0146 4.06264 12 4.06303C11.9848 4.06245 11.9698 4.06619 11.9567 4.0738C11.9436 4.08141 11.933 4.09259 11.926 4.10603L10.486 6.60603C10.3661 6.81285 10.1815 6.97452 9.96068 7.06613C9.73986 7.15774 9.49506 7.17422 9.26396 7.11303L6.46396 6.36603C6.4493 6.36224 6.43391 6.36234 6.4193 6.36633C6.40469 6.37031 6.39138 6.37804 6.38067 6.38874C6.36997 6.39945 6.36224 6.41276 6.35826 6.42737C6.35427 6.44198 6.35417 6.45737 6.35796 6.47203L7.10996 9.25403C7.17178 9.48437 7.15635 9.72862 7.06604 9.94935C6.97572 10.1701 6.81551 10.3551 6.60996 10.476L4.10996 11.924C4.09545 11.9306 4.08323 11.9413 4.07486 11.9549C4.06649 11.9684 4.06234 11.9841 4.06296 12C4.06238 12.0152 4.06612 12.0302 4.07373 12.0433C4.08134 12.0564 4.09252 12.067 4.10596 12.074L6.60596 13.514C6.81258 13.6339 6.97411 13.8183 7.06571 14.0389C7.15731 14.2595 7.17391 14.5041 7.11296 14.735L6.36596 17.535C6.36136 17.5495 6.36098 17.565 6.36488 17.5797C6.36878 17.5944 6.37678 17.6077 6.38796 17.618C6.39897 17.6288 6.41257 17.6366 6.42745 17.6406C6.44234 17.6447 6.45801 17.6448 6.47296 17.641L9.25696 16.894C9.34691 16.8674 9.44016 16.8536 9.53396 16.853Z" fill="black" />
  <path d="M12 15.875C11.2336 15.875 10.4844 15.6477 9.84717 15.2219C9.20993 14.7962 8.71326 14.191 8.41997 13.4829C8.12668 12.7748 8.04994 11.9957 8.19946 11.244C8.34898 10.4924 8.71803 9.80189 9.25996 9.25996C9.80189 8.71803 10.4924 8.34898 11.244 8.19946C11.9957 8.04994 12.7748 8.12668 13.4829 8.41997C14.191 8.71326 14.7962 9.20993 15.2219 9.84717C15.6477 10.4844 15.875 11.2336 15.875 12C15.8737 13.0273 15.465 14.0122 14.7386 14.7386C14.0122 15.465 13.0273 15.8737 12 15.875ZM12 9.125C11.4314 9.125 10.8755 9.29362 10.4027 9.60953C9.92995 9.92544 9.56145 10.3744 9.34385 10.8998C9.12625 11.4251 9.06931 12.0032 9.18024 12.5609C9.29118 13.1186 9.56499 13.6309 9.96707 14.0329C10.3691 14.435 10.8814 14.7088 11.4391 14.8198C11.9968 14.9307 12.5749 14.8738 13.1002 14.6562C13.6256 14.4386 14.0746 14.0701 14.3905 13.5973C14.7064 13.1245 14.875 12.5686 14.875 12C14.8737 11.2379 14.5704 10.5074 14.0315 9.96853C13.4926 9.42965 12.7621 9.12632 12 9.125Z" fill="black" />
</svg>