<svg width="24" height="24" fill="none" xmlns="http://www.w3.org/2000/svg">
    <path
        d="M17.338 7.862a1.2 1.2 0 100-2.4 1.2 1.2 0 000 2.4zM12 6.865a5.135 5.135 0 100 10.27 5.135 5.135 0 000-10.27zm0 8.468a3.334 3.334 0 110-6.667 3.334 3.334 0 010 6.667z"
        fill="#fff" />
    <path
        d="M12 3.802c2.67 0 2.987.01 4.04.058a5.535 5.535 0 011.858.344 3.312 3.312 0 011.898 1.899c.22.594.337 1.222.344 1.856.048 1.054.058 1.371.058 4.042 0 2.67-.01 2.986-.058 4.04a5.532 5.532 0 01-.344 1.857 3.312 3.312 0 01-1.898 1.898 5.532 5.532 0 01-1.857.344c-1.054.048-1.371.058-4.041.058-2.67 0-2.987-.01-4.04-.058a5.532 5.532 0 01-1.857-.344 3.313 3.313 0 01-1.899-1.898 5.535 5.535 0 01-.344-1.857c-.048-1.054-.058-1.371-.058-4.041 0-2.67.01-2.987.058-4.04a5.535 5.535 0 01.344-1.857 3.312 3.312 0 011.899-1.899 5.535 5.535 0 011.856-.344C9.013 3.812 9.33 3.802 12 3.802zM12 2c-2.716 0-3.057.012-4.123.06a7.34 7.34 0 00-2.427.465A5.113 5.113 0 002.525 5.45a7.339 7.339 0 00-.465 2.428C2.012 8.944 2 9.283 2 12c0 2.717.012 3.057.06 4.123.017.83.174 1.65.465 2.427a5.113 5.113 0 002.925 2.925 7.34 7.34 0 002.428.465c1.066.048 1.406.06 4.122.06s3.057-.012 4.123-.06a7.34 7.34 0 002.428-.465 5.113 5.113 0 002.925-2.925c.29-.777.448-1.598.464-2.428.048-1.066.06-1.405.06-4.122 0-2.717-.012-3.057-.06-4.123a7.339 7.339 0 00-.465-2.427 5.113 5.113 0 00-2.925-2.925 7.34 7.34 0 00-2.428-.464C15.056 2.01 14.717 2 12 2z"
        fill="#fff" />
</svg>