<svg width="30" height="20" viewBox="0 0 30 20" fill="none" xmlns="http://www.w3.org/2000/svg"><rect width="30" height="20" rx="4" fill="#4B92DB"/><path d="M16.723 15.28c-.082.088-.171.17-.267.242-.596-.62-1.3-1.3-1.966-1.3-.414 0-.709.315-1.058.535-.48.309-1.142.483-1.707.255a1.861 1.861 0 01-.821-.562 1.788 1.788 0 001.617.14c.554-.23 1.122-.537 1.755-.537.934 0 1.823.633 2.447 1.227zm-6.908-1.94c.62.702 1.629.477 2.453.652.115.028.225.064.349.045-.099-.062-.23-.07-.343-.113-.642-.242-.74-.928-1.092-1.398.45.298.819.703 1.238 1.089.295.244.652.402 1.032.455-.09.034-.208.028-.31.051-.674.169-1.422.433-2.143.197a2.12 2.12 0 01-1.18-.979h-.004zm-.99-1.632c.386.874 1.356.945 1.997 1.48.115.101.243.188.38.258l.008-.006a2.798 2.798 0 01-.424-.464c-.369-.534-.248-1.265-.532-1.834.264.294.483.625.65.982.239.568.32 1.218.858 1.651-.582-.191-1.252-.155-1.772-.495-.551-.36-1.06-.928-1.165-1.57v-.002zm-.413-1.766c.056.77.872 1.18 1.266 1.814.084.135.168.275.29.382-.02-.081-.085-.155-.124-.233a1.766 1.766 0 01-.15-.909c.037-.394.2-.76.138-1.173.338.729.228 1.637.422 2.422.045.174.15.326.214.492-.33-.253-.762-.478-1.125-.76a2.405 2.405 0 01-.816-1.026 2.388 2.388 0 01-.115-1.01zm.023-1.418c.039-.171.07-.349.143-.506-.14.725.343 1.249.506 1.879.062.236.085.486.18.708.009.003.017-.005.023-.01-.24-.67.112-1.289.45-1.815.082-.144.141-.301.174-.464.037.304-.028.652-.084.965-.07.402-.208.779-.318 1.167-.06.253-.064.515-.014.77l-.037-.028c-.253-.466-.753-.832-.903-1.344a2.886 2.886 0 01-.12-1.322zm.267-.782c.009-.516.198-1.014.534-1.406.009-.006.017-.014.028-.011-.354.534-.03 1.215-.079 1.825l-.045.624c.006.006.006.026.023.017.022-.07.028-.143.04-.216.084-.507.528-.855.902-1.21a.8.8 0 00.197-.292c-.03.253-.101.509-.214.737-.29.585-.846 1.057-.948 1.724-.047-.639-.438-1.114-.438-1.792zM9.63 5.89c.162-.195.377-.337.619-.41-.464.317-.44.882-.58 1.355-.05.171-.126.334-.169.512l.015.01c.082-.212.212-.403.38-.559.323-.304.81-.49.97-.936-.009.621-.538 1.094-1.021 1.46a1.76 1.76 0 00-.512.612c.017-.168.028-.315.01-.48-.05-.543-.083-1.154.29-1.564H9.63zm1.87-1.044c-.34.301-.568.687-.832 1.033-.217.29-.518.466-.774.708.14-.287.163-.618.34-.897.301-.478.802-.664 1.266-.844z" fill="#fff"/><path d="M13.19 15.28c.082.088.172.17.268.242.596-.62 1.3-1.3 1.966-1.3.413 0 .709.315 1.057.535.481.309 1.142.483 1.707.255.32-.109.604-.303.822-.562a1.789 1.789 0 01-1.618.14c-.554-.23-1.122-.537-1.755-.537-.933 0-1.822.633-2.446 1.227zm6.908-1.94c-.619.702-1.628.477-2.452.652-.116.028-.225.064-.35.045.1-.062.232-.07.344-.113.641-.242.74-.928 1.091-1.398-.45.298-.818.703-1.237 1.089a2.075 2.075 0 01-1.032.455c.09.034.208.028.309.051.675.169 1.423.433 2.143.197a2.12 2.12 0 001.181-.979h.003zm.99-1.632c-.385.874-1.355.945-1.997 1.48-.115.101-.242.188-.38.258l-.008-.006c.159-.138.301-.294.425-.464.368-.534.247-1.265.531-1.834a3.993 3.993 0 00-.65.982c-.238.568-.32 1.218-.857 1.651.582-.191 1.251-.155 1.772-.495.551-.36 1.06-.928 1.164-1.57v-.002zm.414-1.766c-.057.77-.872 1.18-1.266 1.814-.084.135-.169.275-.29.382.02-.081.085-.155.124-.233.13-.285.18-.598.15-.909-.037-.394-.2-.76-.139-1.173-.337.729-.228 1.637-.422 2.422-.045.174-.149.326-.213.492.329-.253.762-.478 1.125-.76.361-.26.644-.615.815-1.026.11-.324.15-.668.116-1.01zm-.023-1.418c-.04-.171-.07-.349-.143-.506.14.725-.343 1.249-.507 1.879-.062.236-.084.486-.18.708-.008.003-.017-.005-.022-.01.239-.67-.113-1.289-.45-1.815a1.547 1.547 0 01-.174-.464c-.037.304.028.652.084.965.07.402.208.779.318 1.167.06.253.064.515.014.77l.036-.028c.253-.466.754-.832.903-1.344.143-.425.184-.878.121-1.322zm-.267-.782a2.222 2.222 0 00-.535-1.406c-.008-.006-.016-.014-.028-.011.355.534.031 1.215.08 1.825l.044.624c-.006.006-.006.026-.022.017-.023-.07-.029-.143-.04-.216-.084-.507-.528-.855-.903-1.21a.802.802 0 01-.196-.292c.03.253.1.509.213.737.29.585.847 1.057.948 1.724.048-.639.439-1.114.439-1.792zm-.928-1.853a1.294 1.294 0 00-.619-.41c.464.317.439.882.58 1.355.05.171.126.334.168.512l-.014.01a1.52 1.52 0 00-.38-.559c-.323-.304-.81-.49-.97-.936.009.621.537 1.094 1.021 1.46.215.162.39.372.512.612a2.3 2.3 0 01-.011-.48c.05-.543.084-1.154-.29-1.564h.003zm-1.87-1.044c.34.301.568.687.832 1.033.216.29.517.466.773.708-.14-.287-.163-.618-.34-.897-.3-.478-.801-.664-1.266-.844zM19.126 11.052l-.099-.057c-.214.44-.497.842-.839 1.191l-.586-.59c.284-.293.516-.63.69-1l-.1-.055c-.169.36-.397.69-.674.975l-.535-.535c.227-.233.41-.505.544-.801l-.098-.056a2.72 2.72 0 01-.525.778l-.586-.586c.161-.172.288-.372.375-.59l-.099-.057c-.082.208-.202.4-.356.562l-.539-.534a.994.994 0 00.253-.61h.76a1.748 1.748 0 01-.118.582l.099.056c.08-.203.125-.419.131-.637h.834a2.69 2.69 0 01-.234 1.036l.103.056c.154-.344.237-.716.244-1.092h.76a3.554 3.554 0 01-.338 1.453l.098.056a3.67 3.67 0 00.347-1.51h.84a4.494 4.494 0 01-.45 1.908l.098.057a4.617 4.617 0 00.13-3.755l-.102.047c.21.52.321 1.075.328 1.636h-.84a3.681 3.681 0 00-.257-1.313l-.103.047c.16.403.246.832.253 1.266h-.769a2.814 2.814 0 00-.187-.966l-.103.047c.112.294.172.604.178.919h-.825a1.87 1.87 0 00-.113-.59l-.103.046c.063.175.098.358.103.544h-.76a.994.994 0 00-.252-.61l.539-.539c.163.173.289.377.37.6l.103-.042a1.862 1.862 0 00-.393-.637l.59-.591c.249.259.443.565.572.9l.103-.047a2.808 2.808 0 00-.6-.933l.54-.534c.326.337.582.735.754 1.172l.103-.047a3.68 3.68 0 00-.783-1.205l.59-.59c.414.421.74.92.962 1.467l.103-.047a4.626 4.626 0 00-1.022-1.538 4.623 4.623 0 00-1.547-1.026l-.037.108a4.51 4.51 0 011.467.956l-.59.59a3.68 3.68 0 00-1.182-.768l-.047.103c.428.173.818.428 1.149.75l-.535.534a2.813 2.813 0 00-.89-.58l-.038.102c.314.13.6.318.844.553l-.586.59a1.867 1.867 0 00-.563-.365l-.042.108c.194.08.372.195.525.338l-.544.534a.993.993 0 00-.609-.253v-.76c.214.007.426.053.623.136l.043-.103a1.866 1.866 0 00-.666-.145v-.834a2.7 2.7 0 01.97.197l.043-.104c-.322-.13-.666-.2-1.013-.206v-.76c.442.008.88.097 1.29.263l.037-.103a3.68 3.68 0 00-1.327-.267v-.84c.561.008 1.116.119 1.636.329l.037-.108a4.627 4.627 0 00-1.73-.328 4.608 4.608 0 00-2.071.488l.047.093a4.5 4.5 0 011.969-.468v.834a3.66 3.66 0 00-1.58.38l.051.093c.476-.234.998-.359 1.529-.365v.76a2.798 2.798 0 00-1.172.28l.047.099c.35-.17.735-.26 1.125-.267v.834a1.86 1.86 0 00-.736.178l.046.094c.217-.1.451-.154.69-.16v.76a.999.999 0 00-.329.075l.047.094a.89.89 0 01.338-.061.885.885 0 01.89.895.89.89 0 11-1.228-.825l-.051-.098a1.004 1.004 0 00-.281.178l-.535-.54c.137-.128.294-.234.464-.313l-.051-.094c-.18.082-.347.193-.493.328l-.59-.59a2.71 2.71 0 01.694-.484l-.047-.093a2.832 2.832 0 00-.722.501l-.54-.548c.267-.258.573-.473.905-.638l-.046-.093c-.345.168-.661.39-.938.656l-.59-.595c.335-.326.72-.598 1.139-.807l-.052-.098a4.665 4.665 0 00-2.086 2.1l.094.047a4.53 4.53 0 01.825-1.163l.595.596a3.702 3.702 0 00-.68.97l.094.051c.168-.349.39-.669.661-.946l.54.534a2.827 2.827 0 00-.53.773l.093.052a2.7 2.7 0 01.516-.745l.59.59a1.877 1.877 0 00-.365.553l.098.057c.081-.196.197-.376.342-.53l.54.534a.998.998 0 00-.254.614h-.759c.006-.212.05-.422.131-.618l-.094-.057a1.862 1.862 0 00-.15.675h-.834c.007-.37.09-.736.244-1.073l-.094-.047a2.8 2.8 0 00-.262 1.12h-.76a3.564 3.564 0 01.352-1.486l-.099-.051a3.661 3.661 0 00-.36 1.537h-.84a4.5 4.5 0 01.464-1.936l-.098-.051a4.607 4.607 0 00-.29 3.351l.107-.028a4.537 4.537 0 01-.183-1.223h.84c.003.344.055.687.154 1.017l.108-.028a3.581 3.581 0 01-.155-.99h.764c.005.275.049.546.132.807l.112-.028a2.708 2.708 0 01-.131-.778h.825c.006.195.042.388.108.572l.107-.028a1.762 1.762 0 01-.103-.544h.76a.994.994 0 00.253.61l-.54.538a1.754 1.754 0 01-.37-.604l-.107.028c.087.244.224.468.403.656l-.596.59a2.695 2.695 0 01-.618-1.04l-.113.028c.132.41.357.784.656 1.092l-.534.54a3.554 3.554 0 01-.848-1.444l-.108.028c.168.561.469 1.074.876 1.495l-.586.59a4.5 4.5 0 01-1.101-1.879l-.113.028a4.607 4.607 0 001.172 1.969 4.64 4.64 0 001.28.91l.056-.1c-.45-.213-.862-.5-1.219-.848l.591-.59c.303.291.653.53 1.036.703l.056-.094a3.575 3.575 0 01-1.012-.689l.534-.534c.248.238.537.428.853.562l.056-.098a2.7 2.7 0 01-.83-.544l.591-.59c.19.176.413.312.657.398l.051-.099a1.756 1.756 0 01-.628-.38l.54-.538c.168.15.383.24.609.253v.76a1.76 1.76 0 01-.516-.095l-.061.094c.185.068.38.106.577.113v.834a2.695 2.695 0 01-.99-.206l-.056.094c.331.14.686.217 1.046.224v.76a3.563 3.563 0 01-1.42-.319l-.057.094c.463.214.966.329 1.477.337v.835a4.5 4.5 0 01-1.885-.436l-.056.094c.623.299 1.305.454 1.997.454a4.61 4.61 0 002.09-.497l-.056-.103a4.49 4.49 0 01-1.978.488v-.84a3.67 3.67 0 001.594-.388l-.047-.099a3.55 3.55 0 01-1.547.375v-.75c.417-.01.827-.112 1.2-.3l-.052-.098a2.69 2.69 0 01-1.148.281v-.834a1.86 1.86 0 00.764-.188l-.047-.103c-.223.11-.468.17-.717.178v-.76a.993.993 0 00.61-.252l.539.539c-.13.12-.277.219-.436.295l.051.103c.17-.082.326-.19.464-.319l.59.586c-.197.191-.423.35-.67.474l.047.098c.259-.127.496-.293.704-.492l.534.534a3.585 3.585 0 01-.89.633l.055.099c.337-.17.645-.39.915-.652l.585.59a4.54 4.54 0 01-1.12.802l.056.103a4.642 4.642 0 001.186-.862c.367-.366.67-.79.896-1.256z" fill="#fff"/><path d="M15.221 7.958h-.028v.033h.028v-.033zm-.07-.047h.037v.028h-.037v-.028zm-.066-.01l.028.005.005-.028h-.033v.024zm-.028-.009h-.033V7.86l.038.005-.005.028zm-.272-.037h.038v.028h-.038v-.028zm-.08.056l.033.005v-.028h-.028l-.004.023zm0 .047l-.032-.014v-.028l.042.014-.01.028zm-.065.033v-.028l.023-.005.005.028-.028.005zm-3.684 2.887v-.023h-.024v.047h.038v.06h.028v-.07l-.042-.014zm.351.422l-.047-.047-.042-.051-.019-.047-.032-.085.07.038.023.066.033.023.033.07-.019.033zm.97 1.27l-.004-.042-.042-.056.06.01.057.05.028.062-.038.019-.014-.029-.046-.014zm2.532-4.307h-.047l-.014-.104.028-.018v-.052h-.164v-.051l.019-.015-.038-.014-.028.038-.01.042-.046.01v.023h-.033v.06l-.131.109-.263-.01c-.014.047-.06 0-.06 0-.015-.033-.076 0-.076 0 0 .047-.094-.028-.094-.028l-.159-.117c-.094-.084-.234.023-.239.047 0 .065-.108.014-.108.014s-.094-.028-.108.01c-.014.037-.075.027-.075.027l-.009.02-.047.009-.01.028-.055.01h.14c.038-.01-.014.079-.037.074h-.066l-.023.028h-.061l-.028.038-.09-.005s-.046.042-.046.056c.004.014-.01.056-.024.056s-.042.047-.033.057c.01.014-.028.06-.028.06l-.01.048-.027.014v.126l-.056.038v.056l-.085.094.01.07-.07.08.009.075-.043.014-.009.033-.019.098.047.005c.024-.01.019.06 0 .075-.019.01-.07.028-.042.047.028.018-.075.014-.075-.015 0-.032-.056-.056-.07-.046-.014.009-.038-.043-.038-.043-.047-.046-.206.005-.206.005l-.024.08c-.051.004-.084.094-.084.094-.047.014-.075.065-.06.08.013.013-.024.018-.024.018v.103l-.024.033v.117c.033 0 .028.047.028.047-.046.01-.037.07-.037.07l-.099.033-.018.028h-.122l-.033.028-.033-.033h-.234l-.01-.023-.046-.01v-.05h-.075l-.014.032-.075.005c.004.046-.075.117-.085.098-.01-.019-.06-.07-.037-.08a.612.612 0 01.084-.018v-.033l-.173-.005-.02.028-.07.005v.075l-.032.01c-.024.013.004.065.004.065.033.033 0 .089 0 .089-.032.028.02.08.02.08.037.01-.024.037-.024.037.01.047.037.061.037.061-.028.047.019.07.019.07l.005.08.032.019v.056l.02.033h.074v-.122c-.07-.075.052-.094.056-.066.005.029.057.047.057.047.01.07.093.113.112.038.024-.07.047-.028.056.005.014.037.104.117.104.117h.07l.01.065c.079-.004.102 0 .135.113a.206.206 0 00.122.14l.066-.004c0-.061.065.01.065.037 0 .028.127.136.127.136l.126.028.118.094.089-.01h.037c.024-.079.136.005.14.034.01.028.085.08.095.056.009-.024.06-.01.07.06.01.071.047.057.047.057l.262-.005.094-.08.24-.004c.12-.005.046-.174.022-.174-.042-.032.015-.168.015-.168l-.343-.319c-.08 0-.009-.113-.009-.113.06-.037-.014-.103-.014-.103.01-.056-.033-.121-.033-.121-.084-.057-.06-.165-.06-.165v-.08c-.071-.065.027-.074.027-.074.033-.056-.023-.099-.023-.099v-.06l-.08-.01-.01-.225-.168-.24c-.033-.008-.01-.07-.01-.07.048-.023-.009-.08-.009-.08v-.102l.094-.01.024-.037h.046v-.122c.02-.066.075-.033.075-.033l.066.005.037-.07.01-.057h-.047c-.06-.037-.033-.159-.033-.159.094-.136.192-.056.192-.056l.066-.005c.098.066.01.188.01.188-.02.028-.01.117-.01.117l.023.154-.06.047c-.047.033-.047.099.004.113.038.004.024.094-.033.033-.084 0 .047.075.01.056.084.047.065-.038.065-.038l.113-.089c.047-.033.117.07.117.085 0 .014.188.004.188.004.046.033.07.122.07.122.047-.07.16-.004.08.033.075.047.075.09.075.09.06-.02.06.027.06.041l.02-.07c-.071-.052.093-.07.046.023l-.028.043.047.037v.108c.108-.01.08-.136.08-.136l.046-.01c0-.046.033-.018.033-.018-.033-.16.075-.188.075-.188.061-.018.066-.145.066-.145-.047-.019-.019-.084.028-.028.047.056-.028-.113-.028-.113l-.038-.032-.051-.005-.005-.052h-.084l-.014.066-.033.01-.01-.02-.014.047h-.084l-.005-.051.047-.014.024-.028.014-.08h.06l.08-.023c0-.08.047-.061.047-.061l.028.023.043.033v.028l-.024.014-.005.038.014.056h.033c.014-.08.113-.08.14-.028l.03-.07c-.067-.033 0-.085.018-.062.019.024.06-.06.06-.06s.034.046 0-.015c-.032-.056.024-.084.024-.084-.01-.056.061-.047.061-.047l.005-.08h-.066c-.014.066-.07.005-.042-.009.028-.014.056-.042.056-.042v-.047l.028-.01.005-.046h.07l.061-.028.014-.024.066-.004.094-.085-.01-.037c-.056 0 0-.047 0-.047l.01-.07z" fill="#fff"/><path d="M12.925 9.205l-.085-.01.005.033h.023c.038.066.005.225.005.225s-.056.005-.066-.023c-.01-.028-.033.06-.014.08.019.014.085 0 .094.046 0 .057.037-.028.037-.028V9.2v.005z" fill="#fff"/><path d="M12.924 9.608l.028-.005.005-.033-.07.047-.047-.028v.113l.075.098.028-.066.01-.042-.034-.014.005-.07zm.038.3V9.86h-.033v.042l.033.005zm-.043.225V10.1l-.037.005v.033l.037-.005zm.057-.145a.021.021 0 10-.009-.04.02.02 0 00-.007.004.02.02 0 00-.003.008.02.02 0 000 .009c0 .01.01.019.019.019zM13.008 10.086c.01 0 .02-.008.02-.019a.019.019 0 10-.019.019zM13.008 9.542c.01 0 .02-.008.02-.018a.019.019 0 10-.019.019zM14.598 8.825l-.047-.005-.014.024h-.024v.037h.024l.004.028-.018.02-.01.023-.037.009-.085.08v.037l-.028.033-.028.075h-.094l-.023.089.014.07.084.033.01-.047.028-.014.004-.047.02-.032.027-.033.01-.038.046-.028.057-.014.023-.028.01-.056v-.043l.023-.028.056-.023v-.094h-.028l-.005-.028zm.13.323v-.07l-.009-.06-.07-.034-.047.047-.014.066v.047l-.047.01-.01.126-.037.014.005.047-.047.014-.056.014-.01.06-.037.024-.019.061-.023.136s.047.08.066.042c.023-.037.06-.047.06-.047l.014-.028h.127c.01-.047.07-.028.07-.004 0 .023.047 0 .047 0l.033-.047h.052l.004-.061.024-.014v-.08c.075-.023.065-.094.065-.094l.02-.023-.01-.033c-.038-.014-.019-.047.004-.038.024.01-.032-.046-.032-.046-.029.028-.047-.024-.047-.024h-.075v-.005zm.076.572c0 .057-.075.075-.075.075l-.047-.014-.033-.023v-.066l.038-.004.009.028.108.004zm.253-.304c.01.047.01-.066.028-.061.019.004.005-.066.005-.066l-.085.061c.042.005.047.047.052.066zm.248-.244c.019.042.014.103.085.15.023.014-.014.047-.038.033a.706.706 0 01-.094-.117v-.061c.02-.038.038-.024.047-.005zm.014 1.453l.014.024.033-.047-.028-.014-.033.023.014.014zm-.13-.089v.056-.056zm.674-.066l.038-.023-.014-.028-.038.023.014.028zm1.355.985l.042.023v.08c.06.056.244.01.244-.005l-.01-.178-.023-.023-.005-.118c.019-.06-.094-.15-.098-.13-.01.018-.07 0-.07.023 0 .018-.038.112-.02.145.02.033-.013.033-.018.066-.005.032-.052.093-.047.121l.005-.004zm-.103-.188c-.01.038-.047.056-.061.047-.019-.019.023.019.033.038.009.018.037.018.046 0 .01-.02 0-.061.015-.08.009-.019-.029-.024-.033 0v-.005zm-.22-.872h.032v.094h-.033v-.094zm.487-.909c-.024-.028.094-.08.112-.019.02.056 0 .047-.018.042-.02-.004-.066.014-.094-.023zm.098-.638v.029l.047.009.005-.028-.052-.01zm-.21.075l.037.024h.014l.028-.019v.01l.028-.01-.01-.023V8.89l-.018.004-.033.024-.033-.024-.014.028zm.262-1.153h-.07s.023.01-.047-.051c-.061-.061-.104.014-.104.014l-.075.01v.074l-.037.014v.047h.056s0 .052.014.028c.014-.023.132.005.122.066-.004.023.117.084.103.16.061.009.047.07.047.07l.08.009.023-.047.024.005V8.14l-.052-.014-.01-.155-.032-.024.01-.037-.038-.014.019-.061-.033-.066zm.201.483h-.037l-.085.01-.046.093s.023.014.046.047c.015.033.024.225-.032.258s.004.014.004.014l-.009.108c.014.047.037.023.052 0 .014-.024.028-.028.046-.052a.268.268 0 00.052-.103c.005-.033.028-.084.014-.098-.014-.014.014-.08.014-.08s.019-.037 0-.075c-.019-.037.005-.084.019-.103l-.038-.019zm.057.197l.004-.037h.029v.037h-.033zm0 .131l-.024-.014.014-.028.024.014-.014.028zm-.043-.375l-.018-.047s0-.037.01-.056c.008-.019-.02-.037-.034-.047-.014 0-.01-.037-.014-.056 0-.019-.037-.033-.037-.033l-.01-.089c0-.014-.042-.033-.028-.047l.038-.042c.014-.01-.014-.075.01-.06.022.013.022.037.032.055.01.02 0 .085.019.099.023.014 0 .065.032.065.038 0 .015.09.015.09s-.01.065.014.07c.023.005.009.117.009.117l-.038-.023v.004zm-.3-.773c.015.019.043.033.043.051 0 .02-.01.033.018.038.029.005.047 0 .057.019a.13.13 0 010 .084c0 .019.009.047.032.047.024 0 .029 0 .029.019 0 .014.028-.052.028-.052a.256.256 0 01-.047-.06l-.019-.08c0-.01-.033-.02-.047-.024-.014 0-.037-.047-.037-.047l-.056.005zm.047-.042a.133.133 0 00-.046-.043c-.02-.009-.033-.018-.052-.018a.033.033 0 01-.028-.047c.01-.019-.014-.028-.014-.047s.014-.019.037-.005c.024.014.019.019.038.042.019.024.028.047.047.043.018-.005.032.042.047.028.023-.014.018.033.018.033l-.047.014zm-.548.534c.023.028-.14.019-.14 0s.013-.084.055-.07c.043.014.047-.085.047-.085s-.037.005-.004-.014c.032-.018 0-.047-.014-.06l-.029-.038h.066c.028-.019.038-.108.038-.108.056.019.084-.023.084-.023l.028.056c.019.023-.047.033-.023.047.023.014.033.056.023.07-.01.014-.06 0-.06-.014s-.02.023 0 .047c.018.023-.024.056-.034.056-.009 0-.07.01-.018.038.047.028.108.014.108.014s.042 0 .056.018c.014.024-.005.029-.028.029l-.141-.01s-.028.033-.014.047zm-.3.047c.023-.005.08-.01.094 0 .004.019-.038.037-.038.037l-.056.01c-.019-.024-.024-.047 0-.047zm.605-.399c.037-.018.117-.018.112-.046-.005-.033.047-.043.047-.043l.014.057.042.032v.047l-.033.01c-.051.014-.018.037-.018.037h-.117l-.015-.047-.037-.047h.005zm-.188-.257c.033 0-.005.107.07.098.075-.01 0 .033.061.038.057.004.043-.043.061-.075.019-.033.01-.052-.023-.061-.033-.01-.033-.01-.047-.047-.005-.038-.047-.047-.047-.047l-.01-.056-.06.037-.061.08c0 .06.033.033.06.033h-.004zm.127.398l.014-.028.028.014-.014.028-.028-.014zm-.047-.047h.028v.038h-.028v-.038zm.023-.628v.042h-.023l-.005-.037.028-.005zm-.08.44h.029v.024h-.028V7.48zm-.074 0v-.027h.046v.023l-.046.005zm-.385.46l-.028-.014.014-.033.028.014-.014.033zm-.15-.089v-.028h.047v.023l-.047.005zm-.81-.01l-.104.005v.028h.108l-.005-.032zm-.17.043l-.009-.042.028-.005.01.042-.028.005zm-.018.028l-.01-.023.014-.005.01.023-.014.005zm.234-.08l-.005.033.047.005s.024.019.024.033c0 .014.033.028.051.028.019 0 .07-.038.07-.038s.024-.065.005-.06c-.018.004-.056.032-.06.004 0-.028-.062-.014-.062-.014l-.075.01h.005zm.235-.047c0 .01-.015.029.013.033.029.005.08-.019.085.01.005.028.005.046.047.06a.234.234 0 00.084.02l.094-.01s.06.014.075.023c.052.057.084.07.098.047.014-.023 0-.08-.009-.094 0-.023-.07-.112-.094-.093-.023.018-.028 0-.07.014-.042.014-.131.004-.136-.014 0-.019-.07-.028-.07-.047s-.047-.047-.043-.014c.005.028-.032.042-.042.033-.01-.01-.037.028-.037.028l.005.004zm1.073-.609l.033-.108c-.047-.01-.038-.06-.038-.06-.004-.048-.07-.094-.093-.076-.024.014-.015-.098-.015-.098s.043-.028.061-.014c.02.014-.159-.24-.197-.216-.037.024-.121-.023-.117-.065.005-.047-.169-.188-.169-.188s-.056-.037-.065-.01c-.01.029-.028.048 0 .066.028.014.023-.023.056.01.033.032.094.075.07.103-.023.028-.046.037-.046.037l.028.038h.051l.01.08s.056.028.07.06c.014.033.014.052 0 .075-.014.02-.042.047-.038.085.005.033.047.047.047.047h.033l.028.018v.061c.038-.009.099.047.094.075 0 .033.01.014.056.047.047.033.033.038.066.066.033.023.06.01.075-.038v.005z" fill="#fff"/><path d="M16.243 6.533c0-.019-.014-.084.014-.08.028 0 .01 0 .047.014.038.014.033-.023.033-.023h.052l.065.047-.01.047h-.046c-.024-.033-.07-.02-.061.014.01.032-.023.093-.042.098-.019.005-.08.005-.075-.023l.023-.094zm-.037-.127v-.042s0-.037-.029-.037c-.028 0-.065-.028-.056-.047.01-.019-.08-.038-.08-.038s-.08-.075-.046-.065c.023.009.01-.033.01-.033s-.057.01-.071 0c-.014 0-.01-.047-.01-.047s-.056-.01-.056 0 .019.019.028.047c.01.028.005.075.047.084.047.01.052.019.056.038.005.018.057.023.057.023l.037.019.113.094v.004zm-.502-.487l-.014-.038-.037-.009v.047h.051zm-.014-.197c-.047-.038.066.028.066.028.037 0 .06.028.06.042 0 .014.047.01.047.01l.005-.033-.037-.047-.033-.023s-.047-.005-.047-.02c0-.013-.047.057-.066.043h.005zm.858.028c-.014.042-.019.099-.042.099-.024 0-.014.06-.014.06l.08.005c.018.005.018.052.018.052.07 0 .099.093.094.117-.014.023.023.023.023.023s0 .075-.01.094c-.008.019.062.033.08.061.02.028-.009.122-.023.127-.014.009.038.023.033.046-.005.024.014 0 .019.038l.014.117.065.005c.01-.061.132-.066.15-.056.08.028.141.15.141.178 0 .028-.052.033-.052.033l.01.14c.08.024.14.14.136.155-.01.019.056.014.056.014.01-.084.089-.056.094-.028 0 .028.018.094.018.094l.024.037.033.033h.047l.018.028.057.01s.051.056.056.07c.005.014.075.009.094.014.018 0 .047.018.051.042.005.023.033.06.033.06s.056.015.06.034l.029.06.047.038.005.047h.051l.014.06.085-.004.047-.033a.282.282 0 00.107-.093c.005-.024.014-.094.061-.08.047.014.014-.103.014-.103s-.065-.047-.06-.07c.004-.024-.066-.07-.062-.094.005-.014-.06-.056-.056-.075.005-.019-.033-.07-.033-.07l-.065-.061-.01-.047h-.056l-.112-.141.004-.037h-.032v-.057l-.033-.018h-.047l-.108-.118-.01-.051h-.046l.01-.099c.032-.047.013-.126.013-.126s-.066.033-.098.019c-.033-.015.014-.047.014-.047v-.038l-.028-.028s-.08.01-.085-.005l-.018-.075-.005-.08-.033-.013-.005-.033-.051.004v-.056l-.028-.01-.029-.013-.004-.056-.103-.005-.033-.047-.038-.056-.117-.01-.028-.028-.047-.01-.033-.013-.014.023h-.093v.033c-.047.023-.235 0-.235.019l-.01-.005zm.492-.126c-.01-.033.094-.07.117-.043.024.028.09.033.094.178.005.047-.08-.051-.08-.051l-.07-.024c-.037-.009-.056-.032-.061-.056v-.004zm-1.373.06l-.024-.014.019-.042.023.014-.018.042zm-.24-.468l-.06-.061v-.047l-.02-.024-.018-.065L15.27 5l-.062.024-.065.042-.07.01-.038.046.15.01.028.046.108.01.07.07c.061.023.075-.01.037-.042zm-.009-.235c-.01-.037-.07.057-.01.075.062.02.123 0 .123 0l.014-.028.234.005a.136.136 0 00.028-.047s.056-.019.08-.01c.023.01 0-.065-.019-.056-.023.01-.07 0-.07 0h-.085c-.004-.028-.08-.014-.084 0-.005.024-.033.029-.033.029l-.107.009c-.01.028-.066.047-.07.028v-.005zm-.464.807c.07.023.098 0 .103-.014.005-.02.01-.024.038-.029.028-.004-.005-.06-.033-.056-.028 0-.056-.01-.061-.033-.005-.028-.052-.089-.056-.042-.005.047-.033.047-.028.085.004.032.018.08.037.089zm-.539.051c0-.019.094-.019.108-.005.014.015.005.038.047.038s.023.028.018.047c0 .01-.046.005-.056-.01 0-.014-.075-.018-.075-.018s-.037-.028-.042-.052zm1.594-1.017l-.038.028-.023-.023-.024.023.033.033.01.01.009-.01.047-.038-.014-.023zm-.258-.084l-.033-.02-.014.024.038.024h.014l.051-.033-.014-.024-.042.029zm-.155.975h-.004l-.047-.005v.028h.037l.028.047.024-.014-.033-.047-.005-.01zM14.05 7.034l.005.052h.07c.028 0-.023-.033-.023-.033s-.056.005-.047-.019h-.005zm.094 0l.014-.018.028.023-.018.019-.024-.024zm-.853-.885l.019-.02.028.029-.019.019-.028-.028zm1.36 6.107l-.048-.023-.014.023.029.014-.01.01.019.023.023-.023.015-.014-.015-.01zm-.366-.342l-.019-.023-.028.023-.014.014.019.01.032.023.015-.023-.02-.014.015-.01zm3.478-.9c-.005-.023-.033-.033-.038-.037l-.009.028.01.004.004.024-.005.01.02.018c.018-.014.023-.033.018-.047zm.047-.094h-.047v-.042l.047.01v.032zm1.078-.365c.023-.014.047-.038.047.018-.005.052-.028.033-.047.052-.014.019-.028-.052 0-.07zm.239-.202v-.005a.076.076 0 00-.01-.032l-.023.014.005.018c0 .01 0 .02.01.024.004.005.009.005.018 0l-.005-.024.005.005zm-.061.024l.019.056.023-.01a.57.57 0 01-.014-.056l-.028.01zm-.103.112h-.028c0 .019 0 .047.023.047l.01-.023-.005-.024zm-.122-.562a.028.028 0 00-.019-.024c-.019-.01-.051.005-.07.019l.014.023a.102.102 0 01.047-.018l.028-.005v.005zm-1.298-1.52a.153.153 0 01-.061.029l-.014.047-.02.023v.047c0 .033-.046.052-.046.052l-.019.023h-.126c-.047-.019-.014-.075.014-.07.028.005-.005-.08-.005-.08l.037-.004s0-.085.02-.085c.013 0-.005-.028-.024-.047-.019-.014-.047-.06-.061-.056h-.094l-.014.028-.052.01-.004.046c-.028.038-.14.108-.094-.009l.019-.033v-.042h-.085s-.046-.019-.046-.037v-.043l-.099-.107-.117-.015-.01-.023-.07-.01c-.084-.046-.16-.004-.14.066.009.07.032.099-.014.099-.047 0-.057-.038-.057-.038s-.037-.014-.037.005-.014.056 0 .075c.014.019-.019.047-.033.033-.014-.014-.047-.057-.042-.07.01-.015-.066-.104.01-.118.074-.014 0-.056.023-.065l.037-.02h.038L16.379 8l-.06-.01-.038-.004-.07-.005a.197.197 0 00-.085.103c-.038.07-.127-.028-.094-.065.033-.038-.103-.005-.126.014-.024.019-.094.01-.094.01-.014.041-.08-.005-.061-.034.019-.028.019-.046.019-.046l-.024-.01-.028.056c-.06 0-.08.038-.07.061.014.024-.019-.004-.028.029-.005.032.01.032.033.046.028.014-.014.014.004.038.019.023.075 0 .047.033-.037.033-.098.018-.098.018-.005.047-.094.033-.104.02l-.08-.1-.093-.004c-.005-.066.047-.033.066-.084.019-.052.028-.14.028-.14s-.075 0-.08.018c-.005.023-.051.042-.051.042s-.038.014-.024.033c.014.019-.028.028-.028.028s.005.028-.005.042c-.037.038-.13 0-.145-.01l-.056-.023-.057-.037-.065.028-.019.019h-.07l-.005.056.127.014.01.117-.053-.019h-.032l-.014-.028h-.028v.099l.028.023.023.024.047.004.01.061h.117l.014.028h.07l.136.141-.01.047-.023.01c.01.032-.06.013-.06.013v.028l.032.005.033.019.047-.08c.046-.033.075.014.08.047 0 .024-.024.019-.024.019v.07l.028.01c.047.056-.019.089-.019.089l-.014.046c-.014.043-.066.033-.066.033l-.018.028-.056.014.112.015c.01-.038.037-.047.047-.029.019.02.019.052.019.052l.028.005-.005.051.028.01v.154l.033.038c.056-.024.056.014.028.033-.028.018-.01.103-.01.103l-.023.023v.038l-.028.018v.057c-.047-.024-.103-.014-.117 0-.047-.028-.131-.02-.131 0 .028.042-.033.047-.033.047l-.033.042c.024.047-.023.051-.023.051v.094l-.056.047v.126c0 .033.075.038.088.02.015-.02.07.037.07.037h.043l.01-.085-.029-.014v-.14l.047-.047c.056-.024.038.117.038.131 0 .056.028.047.046.038.047-.02.015.056-.023.046-.037 0-.014.047-.014.047l.024.014-.047.033-.033.042-.047-.014-.056-.004-.02-.033-.032-.005-.005.066-.023.028-.056.056c.075 0-.01.052-.028.052.042.014-.005.056-.113.023v.033l-.037.005.032.042h.038l-.014.084c0 .061-.155.019-.169 0v.094h-.033l.005.056v.08l.047-.01v.033l.126.005.183-.192.108-.024c.01-.046.056.01.056.01.047-.005.056.028.056.028l.062.01c.046.013.018.018.023.037 0 .028.028.018.028.018l.01-.06.027.004-.028-.033-.051-.023-.056-.023c-.038-.052.009-.047.046-.038h.061s.07.094.07.117c0 .024.034.028.034.028h.042l.014.028h.042l.014.029h.084v-.043l-.075-.014-.004-.046-.056-.015c-.02-.08.014-.103.037-.065h.028l-.01-.066.034-.01-.01-.102-.028-.01v-.033l.117.005c-.01-.06 0-.089 0-.089h.038v.024l.145.014.103-.118c-.005-.009.01-.014 0-.023-.019-.014-.037 0-.06-.014-.024-.014 0-.094 0-.117-.01-.019.074-.047.06 0-.014.037 0 .06 0 .06.061-.06.113 0 .108.02 0 .013.033.028.056.013.024-.014.052.043.047.07-.014.029-.094.024-.103-.004 0-.028-.019-.019-.028-.005-.01.014-.047.024-.075.01a.023.023 0 01-.005-.01l-.103.118h.005c.056.032.028.075.01.084-.02.01-.048.01-.048.01l-.014.018-.122.01-.01.046c-.055-.004-.079.061-.065.094.014.033 0 .061 0 .061l.047.024.07-.02c.01-.046.047-.056.085-.084.037-.028.098.047.08.09-.02.037-.02.051-.02.051l.005.047-.046.014-.038.019v.023h-.131l-.019.024-.06.004-.02.033h-.046s-.066.037-.038.075c.028.038-.117.033-.15-.019-.01.047-.06 0-.06 0l-.053-.01-.004-.07c-.01-.046-.099-.046-.094-.014 0 .033-.169.015-.169.015l-.056.023-.052.033-.004.023-.085.01-.037.018-.014-.028h-.038l-.037.047c-.094.01-.188.066-.183.094.01.019-.037.047-.037.047l-.043.01-.028.046-.056.014-.01.103-.027.019v.042l-.033.01v.023h-.047l.028.075.038.019c.065.01.037.093.037.093h.037l.02.052.037.08c.014.056.056.042.075.037.019-.005.037.056.037.056l.188.005s-.01.019.023.028c.033.01.249.019.258.005-.01-.042.117-.052.169-.014.047.037.122.014.122.014l.07.084.047.108.08.024.056.014.018.08h.043l.014.056c.047.037-.014.117-.014.117v.108l.037.018-.005.038.061.06h.07l.174.193.14.047.024.075.038-.005.028-.023.112-.005.057-.056.06-.01.516-.44-.047-.028v-.104c.09-.06.094-.173.014-.182-.06-.005-.033-.07.024-.08l.033-.014v-.042l.107-.099v-.075l-.234-.197c-.103-.037 0-.267.07-.262.07.005-.004-.347-.004-.347l-.038-.019.01-.117H16.8l-.084.113-.024.075c-.01.098-.3.08-.314.065-.014-.014-.112-.056-.112-.056s-.075-.06-.09-.047c-.014.024-.08-.019-.08-.005 0 .014-.06-.037-.06-.037l-.094-.033.07-.014L16 10.57l.122.06c.014.02.075.015.075.015l.019.023s.038 0 .061.024c.023.032.145.01.145.01l.033.027.052.019h.145l.005-.09.028-.027v-.057l.028-.028V10.5l.028-.01.005-.103.023-.005v-.23l-.07-.065c-.005.024-.08.024-.08.024s-.019.032-.033.032c-.014 0 .02.047.01.07-.01.029-.047.029-.047.029l-.07.018-.02.024h-.074l-.01-.061.085-.024.047-.023.023-.047c.005-.047.061-.042.061-.042s.108-.094.113-.131c.004-.047.042-.164.107-.164h.122c.047-.019.033-.08.033-.08l.061-.01.01.033s.084.01.093 0c.01-.018.028-.046.047-.037.028.014.103-.033.103-.033 0-.033.122-.019.122-.019l.014-.046s-.08-.108-.094-.108c-.014 0-.094-.066-.098-.042-.075-.02-.07-.122-.07-.122l-.029-.066c0-.037-.07-.117-.084-.108a.07.07 0 010-.122c.019 0 .066-.07.066-.07l.023-.066.08-.023.01-.061-.048-.005s.047-.089.075-.089c.028 0 .178 0 .188-.01.018-.008.047-.083.047-.093 0-.019.037-.023.046-.028.02 0 .047-.042.061-.06.01-.02-.023-.142-.046-.118z" fill="#fff"/><path d="M14.954 10.114c.005 0 .014.023.028.019.014 0 .024.028.005.028-.01 0-.01.014-.01.023 0 .005 0 .024-.014.038-.009.01-.018 0-.032-.005-.014-.01-.024-.01-.042-.01-.015 0 0 .029 0 .029s-.075 0-.061-.014c.014-.01.028-.014.018-.019-.01-.01 0-.014 0-.028s.033-.01.024-.019c-.01-.01 0-.051.019-.028l.009-.023c-.01-.014 0-.014-.024-.024-.023-.01-.004-.047-.004-.047v-.032c.01-.033.08-.038.084-.005v.051l.023.01s-.004.019-.023.019 0 .009-.01.023l.01.019v-.005zm-.234.038c.014-.02.037-.113.065-.085.028.028.047 0 .047 0s.014.014.005.047c-.005.023-.014.052-.028.056-.019 0-.033.014-.056.02-.02 0-.029-.038-.029-.038h-.004z" fill="#fff"/></svg>