<svg width="216" height="36" fill="none" xmlns="http://www.w3.org/2000/svg"><path fill-rule="evenodd" clip-rule="evenodd" d="M46.15 35.486L62.414.5H216l-15.992 35-153.859-.014zm24.166-11.878v1.438h-2.34v-1.445c-1.343-.068-2.513-.294-3.51-.68-1.196-.468-2.113-1.145-2.75-2.029-.637-.896-.955-1.976-.955-3.236 0-1.287.318-2.373.955-3.257.637-.884 1.554-1.56 2.75-2.028.997-.386 2.167-.613 3.51-.68v-1.387h2.34v1.384c1.353.064 2.53.292 3.53.683 1.195.468 2.105 1.15 2.73 2.047.623.885.935 1.963.935 3.238 0 1.248-.312 2.32-.936 3.217-.61.897-1.508 1.58-2.69 2.047-1 .4-2.19.63-3.57.688zm-2.34-9.908c-.805.064-1.514.2-2.126.407-.87.286-1.527.728-1.97 1.325-.428.585-.643 1.327-.643 2.223 0 .897.228 1.645.683 2.243.468.585 1.137 1.027 2.008 1.326.595.195 1.277.324 2.048.386V13.7zm2.34-.01v7.92c.83-.067 1.552-.208 2.164-.425.858-.299 1.502-.741 1.93-1.326.443-.598.664-1.339.664-2.223 0-.884-.221-1.619-.663-2.204-.442-.585-1.086-1.027-1.93-1.325-.618-.219-1.34-.358-2.165-.416zm11.449 8.86c-.546.117-1.177.052-1.892-.195l-.624 1.989c.82.351 1.606.494 2.36.429.767-.052 1.482-.319 2.145-.8.663-.48 1.235-1.182 1.716-2.105l5.928-11.018h-2.496l-4.147 8.02-4.043-8.02h-2.71l5.438 10.18-.213.33c-.429.677-.916 1.073-1.462 1.19zm14.338 1.95V12.995H91.6V10.85h11.544v2.145h-4.524V24.5h-2.516zm9.246-13.65V24.5h6.142c1.716 0 3.042-.364 3.978-1.092.949-.741 1.424-1.781 1.424-3.12 0-1.3-.429-2.288-1.287-2.964-.845-.689-2.087-1.034-3.725-1.034h-4.036v-3.353h8.131V10.85h-10.627zm6.006 11.7h-3.51v-4.31h3.51c1.989 0 2.983.703 2.983 2.107 0 .714-.253 1.26-.76 1.637s-1.248.566-2.223.566zm14.651 2.145c-1.066 0-2.047-.175-2.944-.526a7.204 7.204 0 01-2.34-1.463 6.764 6.764 0 01-1.541-2.223c-.364-.858-.546-1.794-.546-2.808 0-1.014.182-1.944.546-2.789a6.505 6.505 0 011.541-2.222 7.04 7.04 0 012.34-1.482c.897-.351 1.872-.527 2.925-.527 1.066 0 2.041.176 2.925.527a7.04 7.04 0 012.34 1.482 6.502 6.502 0 011.54 2.223c.364.845.546 1.774.546 2.788 0 1.014-.182 1.95-.546 2.808a6.502 6.502 0 01-1.54 2.223 7.204 7.204 0 01-2.34 1.463c-.884.35-1.853.526-2.906.526zm-.019-2.223c.689 0 1.326-.117 1.911-.351a4.475 4.475 0 001.521-.994 4.74 4.74 0 00.994-1.521 4.914 4.914 0 00.371-1.931c0-.702-.124-1.339-.371-1.911a4.473 4.473 0 00-.994-1.521 4.34 4.34 0 00-1.521-1.014 5.099 5.099 0 00-1.911-.351c-.689 0-1.326.117-1.911.351a4.59 4.59 0 00-1.521 1.014 4.725 4.725 0 00-1.014 1.521c-.234.572-.351 1.209-.351 1.911 0 .689.117 1.326.351 1.911a4.959 4.959 0 001.014 1.54c.429.43.936.761 1.521.995a5.099 5.099 0 001.911.351zm8.856 2.165c.221.038.442.058.663.058.741 0 1.352-.182 1.833-.546.481-.364.865-.89 1.151-1.58.299-.701.52-1.566.663-2.593.143-1.027.234-2.216.273-3.569l.115-3.412h5.384V24.5h2.496V10.85h-10.043l-.195 5.655c-.052 1.274-.149 2.347-.292 3.218-.143.87-.377 1.534-.702 1.989a1.541 1.541 0 01-1.307.663 2.12 2.12 0 01-.585-.078l-.175 2.203c.26.052.5.098.721.137zm22.716-9.165c1.625 0 2.88.364 3.764 1.092.884.727 1.326 1.82 1.326 3.276 0 1.534-.488 2.697-1.463 3.49-.962.78-2.307 1.17-4.036 1.17h-5.87V10.85h2.496v4.622h3.783zm-.526 7.078c.975 0 1.729-.227 2.262-.683.546-.454.819-1.117.819-1.989 0-.858-.267-1.482-.8-1.872-.533-.402-1.293-.604-2.281-.604h-3.257v5.148h3.257zm16.032-5.37v-6.33h2.516V24.5h-2.516v-5.148c-.578.221-1.144.39-1.696.507a9.511 9.511 0 01-1.97.214c-1.742 0-3.087-.416-4.036-1.247-.936-.846-1.404-2.055-1.404-3.628V10.85h2.515v4.075c0 .962.28 1.697.839 2.204.559.507 1.358.76 2.398.76a8.356 8.356 0 003.354-.708zm8.876 5.195V18.61h6.591v-2.087h-6.591v-3.549h7.43V10.85h-9.965V24.5h10.238v-2.125h-7.703zm19.811-11.525h-9.263V24.5h2.496l-.018-11.505h6.765l.02-2.145z" fill="#72CC0B"/><path d="M.93 24.5V10.85h2.068l5.986 9.964H7.873l5.889-9.964h2.067l.039 13.65H13.45l-.02-9.886h.507L8.945 22.94h-1.13l-5.07-8.327h.584V24.5H.931zM26.025 24.695c-1.066 0-2.047-.175-2.944-.526a7.204 7.204 0 01-2.34-1.463 6.763 6.763 0 01-1.541-2.223c-.364-.858-.546-1.794-.546-2.808 0-1.014.182-1.944.546-2.789a6.504 6.504 0 011.54-2.222 7.04 7.04 0 012.34-1.482c.898-.351 1.873-.527 2.926-.527 1.066 0 2.04.176 2.924.527a7.04 7.04 0 012.34 1.482 6.504 6.504 0 011.541 2.223c.364.845.546 1.774.546 2.788 0 1.014-.182 1.95-.546 2.808a6.504 6.504 0 01-1.54 2.223 7.204 7.204 0 01-2.34 1.463c-.884.35-1.853.526-2.906.526zm-.02-2.223c.69 0 1.326-.117 1.912-.351a4.475 4.475 0 001.52-.994c.43-.442.761-.95.995-1.521.247-.586.37-1.229.37-1.931s-.123-1.339-.37-1.911a4.475 4.475 0 00-.994-1.521 4.34 4.34 0 00-1.521-1.014 5.099 5.099 0 00-1.912-.351c-.688 0-1.325.117-1.91.351a4.59 4.59 0 00-1.521 1.014 4.725 4.725 0 00-1.015 1.521c-.233.572-.35 1.209-.35 1.911 0 .689.117 1.326.35 1.911a4.959 4.959 0 001.014 1.54c.43.43.936.761 1.521.995a5.099 5.099 0 001.912.351zM36.18 24.5V10.85h2.495v9.691l7.332-9.691h2.36V24.5H45.87v-9.672L38.539 24.5h-2.36zm6.064-14.567c-1.17 0-2.054-.247-2.652-.74-.585-.495-.884-1.19-.897-2.087h1.774c.013.481.17.851.468 1.111.312.26.748.39 1.307.39.559 0 .994-.13 1.306-.39.325-.26.494-.63.507-1.111h1.755c-.013.897-.318 1.592-.916 2.086-.598.494-1.482.741-2.652.741z" fill="#72CC0B"/></svg>