<svg width="40" height="40" viewBox="0 0 40 40" fill="none" xmlns="http://www.w3.org/2000/svg"><circle cx="19.5" cy="19.5" r="11.5" stroke="#222325" stroke-width="1.5"/><path d="M18.094 13.709l5.418 2.93m-5.418-2.93l-4.498 4.54m4.498-4.54l-.439-3.384m5.857 6.314l-1.043 6.355m1.043-6.355l3.072-1.596m-4.115 7.951l-6.075.73m6.075-.73l2.524 2.242m-8.6-1.513l-2.797-5.475m2.798 5.475l-1.632 3.068m-1.166-8.543l-3.235-.664m7.294-7.26L20.59 8m-2.934 2.325l-3.498-.99m12.426 5.708l-.316-4.993m.316 4.993L31 18.386m-6.007 6.85l5.349-1.816m-5.35 1.816l-1.7 5.2m-8.53-3.645L17.889 31m-3.127-4.21l-4.348-.233m-.053-8.973L8 20.408m2.361-2.824l-.763-4.002" stroke="#222325" stroke-width="1.5"/></svg>